<svg xmlns="http://www.w3.org/2000/svg" width="16" height="16" focusable="false" viewBox="0 0 16 16">
  <path fill="currentColor" d="M8 0c.292 0 .58.064.843.187L9 .268l5.251 3a1.993 1.993 0 01.992 1.556l.008.175v6.002a2.011 2.011 0 01-.854 1.638l-.149.095L9 15.733a1.999 1.999 0 01-1.845.08L7 15.733l-5.247-3a2.002 2.002 0 01-.995-1.557L.75 11V5a2.01 2.01 0 01.854-1.638l.149-.095L7 .267A2.01 2.01 0 018 0zm6.25 4.972L8.5 8.297v6.565l2.375-1.357V9.95a.503.503 0 01.25-.436L14.25 7.71V4.972zM1.75 4.97v2.738l3.125 1.805a.501.501 0 01.243.348l.007.088v3.555L7.5 14.861V8.296L1.75 4.971zm0 3.897v2.13a1.003 1.003 0 00.39.791l.109.073 1.876 1.071V10.24L1.75 8.868zm12.5 0l-2.375 1.372v2.693l1.876-1.071a.999.999 0 00.499-.863v-2.13zM7.752 4.542L4.663 2.758 2.28 4.12l5.721 3.308L13.72 4.12l-2.383-1.362L8.25 4.542a.499.499 0 01-.498 0zM8 1.005c-.132 0-.261.026-.382.075l-.121.06L5.67 2.182 8 3.528l2.33-1.346L8.5 1.138a1.002 1.002 0 00-.5-.133z"/>
</svg>