<?xml version="1.0" encoding="UTF-8"?>
<svg width="197px" height="59px" viewBox="0 0 197 59" version="1.1" xmlns="http://www.w3.org/2000/svg" xmlns:xlink="http://www.w3.org/1999/xlink">
    <!-- Generator: Sketch 62 (91390) - https://sketch.com -->
    <title>Group</title>
    <desc>Created with Sketch.</desc>
    <g id="Symbols" stroke="none" stroke-width="1" fill="none" fill-rule="evenodd">
        <g id="garden-horizontal" transform="translate(-71.000000, 0.000000)" fill="#01363D">
            <g id="Group" transform="translate(71.528667, 0.536411)">
                <path d="M0.0187440095,28.8861467 C0.0187440095,19.3369066 7.27811748,13.3814666 15.2739491,13.3814666 C19.271865,13.3814666 23.0593642,15.1270266 25.373947,18.0020666 L25.373947,13.9975466 L31.8968623,13.9975466 L31.8968623,43.0559869 C31.8968623,51.783787 26.3208218,58.2526271 16.5364489,58.2526271 C8.96145046,58.2526271 3.7010349,54.658827 1.38645205,49.832867 L7.38332579,47.0605069 C8.85624215,50.346267 11.8020749,52.399867 16.4312406,52.399867 C22.007281,52.399867 25.373947,48.395347 25.373947,43.2613469 L25.373947,39.4621869 C23.0593642,42.4399069 19.1666566,44.2881469 15.1687408,44.2881469 C7.4885341,44.3908269 0.0187440095,38.4353869 0.0187440095,28.8861467 Z M25.7947802,28.8861467 C25.7947802,23.5467867 21.6916561,19.2342266 16.1156156,19.2342266 C10.6447834,19.2342266 6.43645099,23.4441067 6.43645099,28.8861467 C6.43645099,34.3281868 10.6447834,38.5380669 16.1156156,38.5380669 C21.6916561,38.5380669 25.7947802,34.2255068 25.7947802,28.8861467 Z" id="Shape" fill-rule="nonzero"></path>
                <path d="M36.7364446,28.8861467 C36.7364446,19.3369066 43.9958181,13.3814666 51.9916497,13.3814666 C55.9895656,13.3814666 59.8822731,15.1270266 62.0916476,17.7967066 L62.0916476,13.8948666 L68.6145629,13.8948666 L68.6145629,43.6720669 L62.0916476,43.6720669 L62.0916476,39.5648669 C59.7770648,42.4399069 55.8843572,44.2881469 51.8864414,44.2881469 C44.2062347,44.3908269 36.7364446,38.4353869 36.7364446,28.8861467 Z M62.5124809,28.8861467 C62.5124809,23.5467867 58.4093567,19.2342266 52.8333162,19.2342266 C47.362484,19.2342266 43.1541516,23.4441067 43.1541516,28.8861467 C43.1541516,34.3281868 47.362484,38.5380669 52.8333162,38.5380669 C58.4093567,38.5380669 62.5124809,34.2255068 62.5124809,28.8861467 Z" id="Shape" fill-rule="nonzero"></path>
                <path d="M74.7166449,13.9975466 L81.2395602,13.9975466 L81.2395602,18.7208266 C82.9228932,15.6404266 85.8687259,13.9975466 90.1822667,13.9975466 L93.1280994,13.9975466 L93.1280994,20.0556667 L89.1301836,20.0556667 C83.5541431,20.0556667 81.3447686,22.8280267 81.3447686,28.9888268 L81.3447686,43.7747469 L74.7166449,43.7747469 L74.7166449,13.9975466 L74.7166449,13.9975466 Z" id="Path"></path>
                <path d="M95.1270573,28.8861467 C95.1270573,19.3369066 102.386431,13.3814666 110.382262,13.3814666 C114.380178,13.3814666 118.272886,15.1270266 120.48226,17.7967066 L120.48226,0.341106444 L126.899967,0.341106444 L126.899967,43.7747469 L120.48226,43.7747469 L120.48226,39.6675469 C118.167677,42.5425869 114.27497,44.3908269 110.277054,44.3908269 C102.596847,44.3908269 95.1270573,38.4353869 95.1270573,28.8861467 Z M120.903094,28.8861467 C120.903094,23.5467867 116.799969,19.2342266 111.223929,19.2342266 C105.753097,19.2342266 101.544764,23.4441067 101.544764,28.8861467 C101.544764,34.3281868 105.753097,38.5380669 111.223929,38.5380669 C116.799969,38.5380669 120.903094,34.2255068 120.903094,28.8861467 Z" id="Shape" fill-rule="nonzero"></path>
                <path d="M131.634341,28.9888268 C131.634341,20.2610267 138.472882,13.3814666 147.520796,13.3814666 C156.568711,13.3814666 163.196835,19.7476267 163.196835,28.5781067 L163.196835,31.0424268 L137.94684,31.0424268 C138.788506,35.6630268 142.470797,38.6407469 147.731213,38.6407469 C151.834337,38.6407469 155.095795,36.4844668 156.673919,33.3013868 L162.039543,36.1764268 C159.304127,41.1050669 154.569753,44.2881469 147.731213,44.2881469 C138.157257,44.3908269 131.634341,37.7166268 131.634341,28.9888268 Z M138.262465,25.7030667 L156.568711,25.7030667 C155.621836,21.3905067 152.25517,19.0288666 147.520796,19.0288666 C142.996839,19.0288666 139.524965,21.8012267 138.262465,25.7030667 Z" id="Shape" fill-rule="nonzero"></path>
                <path d="M167.931209,13.9975466 L174.348916,13.9975466 L174.348916,17.8993866 C176.453082,15.1270266 179.71454,13.4841466 183.712455,13.4841466 C191.392662,13.4841466 196.127036,18.4127866 196.127036,26.4218267 L196.127036,43.7747469 L189.498912,43.7747469 L189.498912,26.9352267 C189.498912,22.0065867 186.973913,18.9261866 182.134331,18.9261866 C177.715582,18.9261866 174.348916,22.1092667 174.348916,27.3459467 L174.348916,43.6720669 L167.826,43.6720669 L167.826,13.9975466 L167.931209,13.9975466 Z" id="Path"></path>
            </g>
        </g>
    </g>
</svg>